<svg xmlns="http://www.w3.org/2000/svg" width="1280" height="420" viewBox="0 0 1280 420" role="img" aria-labelledby="title desc">
  <title id="title">TRCR Kit</title>
  <desc id="desc">A simple developer-punk banner for the True Crime / Cult-Origin Research Kit.</desc>

  <rect width="1280" height="420" fill="#111722"/>
  <path d="M0 332L324 292L604 324L910 242L1280 286V420H0Z" fill="#173f3d"/>
  <path d="M984 0H1280V420H888L1036 244Z" fill="#332c16"/>
  <path d="M1128 0H1280V202L1074 84Z" fill="#8c3f3f" opacity="0.38"/>
  <path d="M0 0H1280" stroke="#58dbc5" stroke-width="12"/>

  <g transform="translate(72 86) skewX(-4)">
    <text x="5" y="123" font-family="Oxanium, Rajdhani, 'Space Grotesk', 'Arial Black', Impact, sans-serif" font-size="78" font-weight="900" letter-spacing="0" fill="#58dbc5" opacity="0.32">Research,</text>
    <text x="5" y="209" font-family="Oxanium, Rajdhani, 'Space Grotesk', 'Arial Black', Impact, sans-serif" font-size="78" font-weight="900" letter-spacing="0" fill="#58dbc5" opacity="0.32">sourced.</text>
    <text x="0" y="118" font-family="Oxanium, Rajdhani, 'Space Grotesk', 'Arial Black', Impact, sans-serif" font-size="78" font-weight="900" letter-spacing="0" fill="#f7f3ea">Research,</text>
    <text x="0" y="204" font-family="Oxanium, Rajdhani, 'Space Grotesk', 'Arial Black', Impact, sans-serif" font-size="78" font-weight="900" letter-spacing="0" fill="#f7f3ea">sourced.</text>
  </g>

  <g transform="translate(620 82)">
    <rect x="10" y="10" width="252" height="234" fill="#000000" opacity="0.34"/>
    <rect x="0" y="0" width="252" height="234" fill="#f7f3ea" stroke="#58dbc5" stroke-width="4"/>
    <rect x="0" y="0" width="252" height="38" fill="#151922"/>
    <circle cx="28" cy="19" r="7" fill="#ff6b6b"/>
    <circle cx="52" cy="19" r="7" fill="#ffd166"/>
    <circle cx="76" cy="19" r="7" fill="#58dbc5"/>
    <text x="28" y="86" font-family="ui-monospace, SFMono-Regular, Menlo, Consolas, monospace" font-size="22" font-weight="800" letter-spacing="0" fill="#151922">$ cr-kit</text>
    <rect x="28" y="116" width="148" height="12" fill="#a8b7c2"/>
    <rect x="28" y="144" width="188" height="12" fill="#a8b7c2"/>
    <rect x="28" y="172" width="116" height="12" fill="#a8b7c2"/>
  </g>

  <g transform="translate(894 112)">
    <path d="M22 98H284" stroke="#f7f3ea" stroke-width="5"/>
    <circle cx="22" cy="98" r="18" fill="#111722" stroke="#f7f3ea" stroke-width="4"/>
    <circle cx="22" cy="98" r="8" fill="#58dbc5"/>
    <circle cx="152" cy="98" r="18" fill="#111722" stroke="#f7f3ea" stroke-width="4"/>
    <circle cx="152" cy="98" r="8" fill="#7c8ff7"/>
    <circle cx="284" cy="98" r="18" fill="#111722" stroke="#f7f3ea" stroke-width="4"/>
    <circle cx="284" cy="98" r="8" fill="#ff6b6b"/>
  </g>

  <g transform="translate(1010 242)">
    <rect x="10" y="10" width="154" height="92" fill="#000000" opacity="0.34"/>
    <rect x="0" y="0" width="154" height="92" fill="#f7f3ea"/>
    <polygon points="34,50 52,32 70,50 112,20 126,38 68,78" fill="#58dbc5"/>
  </g>
</svg>
