<svg xmlns="http://www.w3.org/2000/svg" width="1280" height="420" viewBox="0 0 1280 420" role="img" aria-labelledby="title desc">
  <title id="title">True Crime / Cult-Origin Research Kit</title>
  <desc id="desc">A dark banner showing a source-to-claim evidence pipeline, timeline markers, and graph links.</desc>
  <defs>
    <linearGradient id="bg" x1="0" x2="1" y1="0" y2="1">
      <stop offset="0%" stop-color="#12151c"/>
      <stop offset="52%" stop-color="#1b2430"/>
      <stop offset="100%" stop-color="#26332f"/>
    </linearGradient>
    <linearGradient id="line" x1="0" x2="1">
      <stop offset="0%" stop-color="#80cbc4"/>
      <stop offset="50%" stop-color="#f6c177"/>
      <stop offset="100%" stop-color="#e78284"/>
    </linearGradient>
    <filter id="shadow" x="-20%" y="-20%" width="140%" height="140%">
      <feDropShadow dx="0" dy="14" stdDeviation="18" flood-color="#000000" flood-opacity="0.35"/>
    </filter>
  </defs>
  <rect width="1280" height="420" rx="0" fill="url(#bg)"/>
  <g opacity="0.16">
    <path d="M0 330 C140 280 230 360 360 300 S600 250 760 300 1040 365 1280 280" fill="none" stroke="#ffffff" stroke-width="2"/>
    <path d="M0 92 C160 150 270 56 420 118 S700 200 880 112 1110 40 1280 120" fill="none" stroke="#ffffff" stroke-width="2"/>
  </g>
  <g transform="translate(76 70)" filter="url(#shadow)">
    <rect x="0" y="0" width="318" height="220" rx="18" fill="#f7efe3"/>
    <rect x="24" y="28" width="210" height="18" rx="4" fill="#28313f"/>
    <rect x="24" y="64" width="260" height="10" rx="3" fill="#667085"/>
    <rect x="24" y="88" width="240" height="10" rx="3" fill="#8a93a3"/>
    <rect x="24" y="112" width="270" height="10" rx="3" fill="#8a93a3"/>
    <rect x="24" y="154" width="116" height="32" rx="8" fill="#d55c5a"/>
    <text x="38" y="176" font-family="Inter, Arial, sans-serif" font-size="15" font-weight="700" fill="#fff">SOURCE</text>
  </g>
  <g transform="translate(420 82)">
    <circle cx="74" cy="64" r="46" fill="#80cbc4"/>
    <circle cx="74" cy="64" r="22" fill="#12151c" opacity="0.9"/>
    <circle cx="74" cy="174" r="34" fill="#f6c177"/>
    <path d="M104 82 L198 132" stroke="#d6dce7" stroke-width="5" stroke-linecap="round"/>
    <path d="M78 110 L78 138" stroke="#d6dce7" stroke-width="5" stroke-linecap="round"/>
    <circle cx="224" cy="146" r="42" fill="#e78284"/>
    <text x="18" y="246" font-family="Inter, Arial, sans-serif" font-size="18" font-weight="700" fill="#d6dce7">entities + events + claims</text>
  </g>
  <g transform="translate(720 68)" filter="url(#shadow)">
    <rect x="0" y="0" width="420" height="236" rx="20" fill="#101820" opacity="0.94"/>
    <path d="M42 176 H364" stroke="url(#line)" stroke-width="6" stroke-linecap="round"/>
    <circle cx="74" cy="176" r="15" fill="#80cbc4"/>
    <circle cx="170" cy="176" r="15" fill="#f6c177"/>
    <circle cx="272" cy="176" r="15" fill="#e78284"/>
    <circle cx="342" cy="176" r="15" fill="#a6d189"/>
    <rect x="38" y="36" width="162" height="20" rx="5" fill="#d6dce7"/>
    <rect x="38" y="74" width="340" height="12" rx="4" fill="#7d8594"/>
    <rect x="38" y="100" width="302" height="12" rx="4" fill="#7d8594"/>
    <text x="38" y="142" font-family="Inter, Arial, sans-serif" font-size="18" font-weight="700" fill="#f7efe3">traceable case ledger</text>
  </g>
  <g transform="translate(74 332)">
    <text x="0" y="0" font-family="Inter, Arial, sans-serif" font-size="34" font-weight="800" fill="#ffffff">TRCR Kit</text>
    <text x="166" y="0" font-family="Inter, Arial, sans-serif" font-size="22" font-weight="600" fill="#d6dce7">public-source research, structured evidence, privacy-aware exports</text>
  </g>
</svg>
